<svg xmlns="http://www.w3.org/2000/svg" xmlns:xlink="http://www.w3.org/1999/xlink" width="1000" zoomAndPan="magnify" viewBox="0 0 750 749.999995" height="1000" preserveAspectRatio="xMidYMid meet" version="1.0"><defs><g/><clipPath id="00ffbf7c04"><rect x="0" width="176" y="0" height="534"/></clipPath><clipPath id="0bee08fda0"><rect x="0" width="145" y="0" height="534"/></clipPath><clipPath id="23e96e17e6"><path d="M 143.699219 210.570312 L 214.117188 210.570312 L 214.117188 272.097656 L 143.699219 272.097656 Z M 143.699219 210.570312 " clip-rule="nonzero"/></clipPath><clipPath id="a891a2db47"><path d="M 0.699219 0.570312 L 71.117188 0.570312 L 71.117188 62.097656 L 0.699219 62.097656 Z M 0.699219 0.570312 " clip-rule="nonzero"/></clipPath><clipPath id="147b4b541e"><rect x="0" width="72" y="0" height="63"/></clipPath><clipPath id="e3134cf92c"><rect x="0" width="46" y="0" height="215"/></clipPath><clipPath id="09469af52f"><path d="M 1 0.480469 L 5 0.480469 L 5 6 L 1 6 Z M 1 0.480469 " clip-rule="nonzero"/></clipPath><clipPath id="b5bae684c8"><path d="M 4 0.480469 L 9 0.480469 L 9 6 L 4 6 Z M 4 0.480469 " clip-rule="nonzero"/></clipPath><clipPath id="f91600d715"><path d="M 8 0.480469 L 10 0.480469 L 10 6 L 8 6 Z M 8 0.480469 " clip-rule="nonzero"/></clipPath><clipPath id="8359bf65f0"><path d="M 10 0.480469 L 15 0.480469 L 15 6 L 10 6 Z M 10 0.480469 " clip-rule="nonzero"/></clipPath><clipPath id="a42b3bcb6a"><path d="M 14 0.480469 L 20 0.480469 L 20 6 L 14 6 Z M 14 0.480469 " clip-rule="nonzero"/></clipPath><clipPath id="f3b3a25461"><rect x="0" width="21" y="0" height="8"/></clipPath><clipPath id="3eec673486"><path d="M 1 0.480469 L 5 0.480469 L 5 6 L 1 6 Z M 1 0.480469 " clip-rule="nonzero"/></clipPath><clipPath id="a751c1aaad"><path d="M 5 0.480469 L 8 0.480469 L 8 6 L 5 6 Z M 5 0.480469 " clip-rule="nonzero"/></clipPath><clipPath id="e4f0eee84d"><path d="M 7 0.480469 L 13 0.480469 L 13 6 L 7 6 Z M 7 0.480469 " clip-rule="nonzero"/></clipPath><clipPath id="353552233c"><path d="M 12 0.480469 L 17 0.480469 L 17 6 L 12 6 Z M 12 0.480469 " clip-rule="nonzero"/></clipPath><clipPath id="b0eadff2d6"><path d="M 16 0.480469 L 21 0.480469 L 21 6 L 16 6 Z M 16 0.480469 " clip-rule="nonzero"/></clipPath><clipPath id="4ec42537ae"><path d="M 21 0.480469 L 25 0.480469 L 25 6 L 21 6 Z M 21 0.480469 " clip-rule="nonzero"/></clipPath><clipPath id="472f2d66c9"><rect x="0" width="27" y="0" height="8"/></clipPath><clipPath id="f8c37d4f89"><rect x="0" width="177" y="0" height="534"/></clipPath><clipPath id="94d4e1bb77"><path d="M 1 0.480469 L 6 0.480469 L 6 6 L 1 6 Z M 1 0.480469 " clip-rule="nonzero"/></clipPath><clipPath id="611898f637"><path d="M 5 0.480469 L 10 0.480469 L 10 6 L 5 6 Z M 5 0.480469 " clip-rule="nonzero"/></clipPath><clipPath id="2c204a6fce"><path d="M 10 0.480469 L 13 0.480469 L 13 6 L 10 6 Z M 10 0.480469 " clip-rule="nonzero"/></clipPath><clipPath id="06a3990c23"><path d="M 13 0.480469 L 18 0.480469 L 18 6 L 13 6 Z M 13 0.480469 " clip-rule="nonzero"/></clipPath><clipPath id="0a83d10846"><path d="M 17 0.480469 L 22 0.480469 L 22 6 L 17 6 Z M 17 0.480469 " clip-rule="nonzero"/></clipPath><clipPath id="3f10ce5dd7"><path d="M 21 0.480469 L 26 0.480469 L 26 6 L 21 6 Z M 21 0.480469 " clip-rule="nonzero"/></clipPath><clipPath id="628d80a32b"><rect x="0" width="27" y="0" height="8"/></clipPath></defs><g transform="matrix(1, 0, 0, 1, 243, 108)"><g clip-path="url(#00ffbf7c04)"><g fill="#ffffff" fill-opacity="1"><g transform="translate(1.006514, 413.358771)"><g><path d="M 13.765625 -311.28125 L 98.203125 -311.28125 C 120.910156 -311.28125 137.394531 -305.722656 147.65625 -294.609375 C 157.925781 -283.492188 163.0625 -265.375 163.0625 -240.25 L 163.0625 -226.484375 C 163.0625 -196.765625 152.4375 -179.007812 131.1875 -173.21875 C 144.226562 -169.832031 153.40625 -161.976562 158.71875 -149.65625 C 164.03125 -137.34375 166.6875 -121.035156 166.6875 -100.734375 C 166.6875 -67.640625 161.734375 -42.578125 151.828125 -25.546875 C 141.929688 -8.515625 124.054688 0 98.203125 0 L 13.765625 0 Z M 87.328125 -194.234375 C 92.640625 -194.234375 96.265625 -196.222656 98.203125 -200.203125 C 100.140625 -204.191406 101.109375 -209.8125 101.109375 -217.0625 L 101.109375 -248.234375 C 101.109375 -258.378906 96.632812 -263.453125 87.6875 -263.453125 L 74.65625 -263.453125 L 74.65625 -194.234375 Z M 80.8125 -54.71875 C 97 -54.71875 105.09375 -62.445312 105.09375 -77.90625 L 105.09375 -116.6875 C 105.09375 -126.101562 103.703125 -133.226562 100.921875 -138.0625 C 98.140625 -142.894531 93.25 -145.3125 86.25 -145.3125 L 74.65625 -145.3125 L 74.65625 -55.078125 Z M 80.8125 -54.71875 "/></g></g></g></g></g><g transform="matrix(1, 0, 0, 1, 172, 108)"><g clip-path="url(#0bee08fda0)"><g fill="#ffffff" fill-opacity="1"><g transform="translate(0.252567, 413.358771)"><g><path d="M 40.59375 0 L 40.59375 -251.484375 L 3.625 -251.484375 L 3.625 -311.28125 L 139.875 -311.28125 L 139.875 -251.484375 L 102.921875 -251.484375 L 102.921875 0 Z M 40.59375 0 "/></g></g></g></g></g><path stroke-linecap="butt" transform="matrix(0, -0.75, 0.75, 0, 265.861338, 521.753323)" fill="none" stroke-linejoin="miter" d="M -0.000778236 1.00259 L 332.879446 1.00259 " stroke="#000000" stroke-width="2" stroke-opacity="1" stroke-miterlimit="4"/><g clip-path="url(#23e96e17e6)"><g transform="matrix(1, 0, 0, 1, 143, 210)"><g clip-path="url(#147b4b541e)"><g clip-path="url(#a891a2db47)"><path fill="#ffffff" d="M 0.699219 0.570312 L 71.117188 0.570312 L 71.117188 62.097656 L 0.699219 62.097656 Z M 0.699219 0.570312 " fill-opacity="1" fill-rule="nonzero"/></g></g></g></g><g transform="matrix(1, 0, 0, 1, 562, 353)"><g clip-path="url(#e3134cf92c)"><g fill="#ffffff" fill-opacity="1"><g transform="translate(0.995385, 167.091778)"><g><path d="M 21.609375 0.6875 C 18.898438 0.6875 16.507812 0.136719 14.4375 -0.953125 C 12.375 -2.054688 10.789062 -3.578125 9.6875 -5.515625 C 8.59375 -7.460938 8.046875 -9.660156 8.046875 -12.109375 C 8.046875 -14.554688 8.59375 -16.75 9.6875 -18.6875 C 10.789062 -20.632812 12.375 -22.171875 14.4375 -23.296875 C 16.507812 -24.421875 18.898438 -24.984375 21.609375 -24.984375 C 24.367188 -24.984375 26.78125 -24.429688 28.84375 -23.328125 C 30.914062 -22.234375 32.5 -20.710938 33.59375 -18.765625 C 34.695312 -16.828125 35.25 -14.632812 35.25 -12.1875 C 35.25 -8.457031 34.007812 -5.378906 31.53125 -2.953125 C 29.0625 -0.523438 25.753906 0.6875 21.609375 0.6875 Z M 21.609375 0.6875 "/></g></g></g></g></g><g transform="matrix(1, 0, 0, 1, 229, 516)"><g clip-path="url(#f3b3a25461)"><g clip-path="url(#09469af52f)"><g fill="#ff751f" fill-opacity="1"><g transform="translate(1.230058, 5.258999)"><g><path d="M 0.046875 -3.5625 L 0.046875 -4.453125 L 3.171875 -4.453125 L 3.171875 -3.5625 L 2.109375 -3.5625 L 2.109375 0 L 1.09375 0 L 1.09375 -3.5625 Z M 0.046875 -3.5625 "/></g></g></g></g><g clip-path="url(#b5bae684c8)"><g fill="#ff751f" fill-opacity="1"><g transform="translate(4.440632, 5.258999)"><g><path d="M 1.34375 -1.78125 L 1.34375 0 L 0.328125 0 L 0.328125 -4.453125 L 1.34375 -4.453125 L 1.34375 -2.671875 L 2.765625 -2.671875 L 2.765625 -4.453125 L 3.78125 -4.453125 L 3.78125 0 L 2.765625 0 L 2.765625 -1.78125 Z M 1.34375 -1.78125 "/></g></g></g></g><g clip-path="url(#f91600d715)"><g fill="#ff751f" fill-opacity="1"><g transform="translate(8.545425, 5.258999)"><g><path d="M 1.34375 -4.453125 L 1.34375 0 L 0.328125 0 L 0.328125 -4.453125 Z M 1.34375 -4.453125 "/></g></g></g></g><g clip-path="url(#8359bf65f0)"><g fill="#ff751f" fill-opacity="1"><g transform="translate(10.204581, 5.258999)"><g><path d="M 1.34375 -2.765625 L 1.34375 0 L 0.328125 0 L 0.328125 -4.453125 L 1.34375 -4.453125 L 3.109375 -1.6875 L 3.109375 -4.453125 L 4.125 -4.453125 L 4.125 0 L 3.109375 0 Z M 1.34375 -2.765625 "/></g></g></g></g><g clip-path="url(#a42b3bcb6a)"><g fill="#ff751f" fill-opacity="1"><g transform="translate(14.654133, 5.258999)"><g><path d="M 4.375 0 L 2.96875 0 L 1.34375 -1.890625 L 1.34375 0 L 0.328125 0 L 0.328125 -4.453125 L 1.34375 -4.453125 L 1.34375 -2.625 L 2.859375 -4.453125 L 4.09375 -4.453125 L 2.296875 -2.34375 Z M 4.375 0 "/></g></g></g></g></g></g><g transform="matrix(1, 0, 0, 1, 305, 516)"><g clip-path="url(#472f2d66c9)"><g clip-path="url(#3eec673486)"><g fill="#ff751f" fill-opacity="1"><g transform="translate(1.235782, 5.258999)"><g><path d="M 0.328125 -4.453125 L 1.703125 -4.453125 C 2.117188 -4.453125 2.453125 -4.359375 2.703125 -4.171875 C 2.953125 -3.992188 3.078125 -3.707031 3.078125 -3.3125 C 3.078125 -2.863281 2.890625 -2.546875 2.515625 -2.359375 C 3.148438 -2.242188 3.46875 -1.867188 3.46875 -1.234375 C 3.46875 -0.859375 3.335938 -0.554688 3.078125 -0.328125 C 2.816406 -0.109375 2.460938 0 2.015625 0 L 0.328125 0 Z M 1.34375 -2.703125 L 1.421875 -2.703125 C 1.640625 -2.703125 1.804688 -2.738281 1.921875 -2.8125 C 2.035156 -2.894531 2.09375 -3.03125 2.09375 -3.21875 C 2.09375 -3.519531 1.867188 -3.671875 1.421875 -3.671875 L 1.34375 -3.671875 Z M 1.34375 -0.78125 L 1.65625 -0.78125 C 2.15625 -0.78125 2.40625 -0.945312 2.40625 -1.28125 C 2.40625 -1.476562 2.34375 -1.617188 2.21875 -1.703125 C 2.09375 -1.785156 1.90625 -1.828125 1.65625 -1.828125 L 1.34375 -1.828125 Z M 1.34375 -0.78125 "/></g></g></g></g><g clip-path="url(#a751c1aaad)"><g fill="#ff751f" fill-opacity="1"><g transform="translate(4.823436, 5.258999)"><g><path d="M 2.875 -4.453125 L 2.875 -3.5625 L 1.34375 -3.5625 L 1.34375 -2.671875 L 2.796875 -2.671875 L 2.796875 -1.78125 L 1.34375 -1.78125 L 1.34375 -0.890625 L 2.875 -0.890625 L 2.875 0 L 0.328125 0 L 0.328125 -4.453125 Z M 2.875 -4.453125 "/></g></g></g></g><g clip-path="url(#e4f0eee84d)"><g fill="#ff751f" fill-opacity="1"><g transform="translate(7.947817, 5.258999)"><g><path d="M -0.15625 -4.453125 L 1.0625 -4.453125 L 1.984375 -3.03125 L 2.90625 -4.453125 L 4.125 -4.453125 L 2.484375 -2 L 2.484375 0 L 1.484375 0 L 1.484375 -2 Z M -0.15625 -4.453125 "/></g></g></g></g><g clip-path="url(#353552233c)"><g fill="#ff751f" fill-opacity="1"><g transform="translate(11.912551, 5.258999)"><g><path d="M 0.125 -2.21875 C 0.125 -2.863281 0.34375 -3.410156 0.78125 -3.859375 C 1.21875 -4.304688 1.742188 -4.53125 2.359375 -4.53125 C 2.984375 -4.53125 3.515625 -4.304688 3.953125 -3.859375 C 4.390625 -3.421875 4.609375 -2.875 4.609375 -2.21875 C 4.609375 -1.570312 4.394531 -1.023438 3.96875 -0.578125 C 3.539062 -0.140625 3.003906 0.078125 2.359375 0.078125 C 1.710938 0.078125 1.175781 -0.140625 0.75 -0.578125 C 0.332031 -1.015625 0.125 -1.5625 0.125 -2.21875 Z M 1.21875 -2.21875 C 1.21875 -1.988281 1.253906 -1.773438 1.328125 -1.578125 C 1.398438 -1.390625 1.523438 -1.226562 1.703125 -1.09375 C 1.878906 -0.96875 2.097656 -0.90625 2.359375 -0.90625 C 2.742188 -0.90625 3.03125 -1.03125 3.21875 -1.28125 C 3.414062 -1.539062 3.515625 -1.851562 3.515625 -2.21875 C 3.515625 -2.582031 3.414062 -2.894531 3.21875 -3.15625 C 3.019531 -3.414062 2.734375 -3.546875 2.359375 -3.546875 C 1.992188 -3.546875 1.710938 -3.414062 1.515625 -3.15625 C 1.316406 -2.894531 1.21875 -2.582031 1.21875 -2.21875 Z M 1.21875 -2.21875 "/></g></g></g></g><g clip-path="url(#b0eadff2d6)"><g fill="#ff751f" fill-opacity="1"><g transform="translate(16.636834, 5.258999)"><g><path d="M 1.34375 -2.765625 L 1.34375 0 L 0.328125 0 L 0.328125 -4.453125 L 1.34375 -4.453125 L 3.109375 -1.6875 L 3.109375 -4.453125 L 4.125 -4.453125 L 4.125 0 L 3.109375 0 Z M 1.34375 -2.765625 "/></g></g></g></g><g clip-path="url(#4ec42537ae)"><g fill="#ff751f" fill-opacity="1"><g transform="translate(21.086386, 5.258999)"><g><path d="M 0.328125 -4.453125 L 1.609375 -4.453125 C 2.222656 -4.453125 2.75 -4.238281 3.1875 -3.8125 C 3.632812 -3.394531 3.859375 -2.863281 3.859375 -2.21875 C 3.859375 -1.582031 3.640625 -1.050781 3.203125 -0.625 C 2.765625 -0.207031 2.234375 0 1.609375 0 L 0.328125 0 Z M 1.34375 -0.90625 L 1.5 -0.90625 C 1.863281 -0.90625 2.160156 -1.03125 2.390625 -1.28125 C 2.628906 -1.53125 2.753906 -1.84375 2.765625 -2.21875 C 2.765625 -2.59375 2.644531 -2.90625 2.40625 -3.15625 C 2.164062 -3.414062 1.863281 -3.546875 1.5 -3.546875 L 1.34375 -3.546875 Z M 1.34375 -0.90625 "/></g></g></g></g><g fill="#ff751f" fill-opacity="1"><g transform="translate(25.06372, 5.258999)"><g/></g></g></g></g><g transform="matrix(1, 0, 0, 1, 397, 108)"><g clip-path="url(#f8c37d4f89)"><g fill="#ffffff" fill-opacity="1"><g transform="translate(0.805872, 413.358771)"><g><path d="M 5.4375 0 L 35.515625 -311.28125 L 140.96875 -311.28125 L 170.671875 0 L 111.609375 0 L 107.265625 -50.375 L 69.578125 -50.375 L 65.953125 0 Z M 74.28125 -100.015625 L 102.546875 -100.015625 L 88.78125 -258.375 L 85.890625 -258.375 Z M 74.28125 -100.015625 "/></g></g></g></g></g><g transform="matrix(1, 0, 0, 1, 418, 516)"><g clip-path="url(#628d80a32b)"><g clip-path="url(#94d4e1bb77)"><g fill="#ff751f" fill-opacity="1"><g transform="translate(1.259392, 5.258999)"><g><path d="M 2.578125 -4.453125 L 4.375 0 L 3.28125 0 L 2.953125 -0.890625 L 1.265625 -0.890625 L 0.9375 0 L -0.15625 0 L 1.640625 -4.453125 Z M 2.609375 -1.78125 L 2.125 -3.078125 L 2.109375 -3.078125 L 1.609375 -1.78125 Z M 2.609375 -1.78125 "/></g></g></g></g><g clip-path="url(#611898f637)"><g fill="#ff751f" fill-opacity="1"><g transform="translate(5.482699, 5.258999)"><g><path d="M 4.34375 -2.484375 L 4.34375 -1.53125 C 4.226562 -1 3.976562 -0.597656 3.59375 -0.328125 C 3.207031 -0.0546875 2.773438 0.078125 2.296875 0.078125 C 1.691406 0.078125 1.175781 -0.144531 0.75 -0.59375 C 0.332031 -1.039062 0.125 -1.582031 0.125 -2.21875 C 0.125 -2.863281 0.328125 -3.410156 0.734375 -3.859375 C 1.148438 -4.304688 1.671875 -4.53125 2.296875 -4.53125 C 3.015625 -4.53125 3.582031 -4.273438 4 -3.765625 L 3.34375 -3.046875 C 3.101562 -3.421875 2.769531 -3.609375 2.34375 -3.609375 C 2.03125 -3.609375 1.765625 -3.472656 1.546875 -3.203125 C 1.328125 -2.929688 1.21875 -2.601562 1.21875 -2.21875 C 1.21875 -1.84375 1.328125 -1.519531 1.546875 -1.25 C 1.765625 -0.988281 2.03125 -0.859375 2.34375 -0.859375 C 2.601562 -0.859375 2.828125 -0.9375 3.015625 -1.09375 C 3.210938 -1.25 3.3125 -1.453125 3.3125 -1.703125 L 2.296875 -1.703125 L 2.296875 -2.484375 Z M 4.34375 -2.484375 "/></g></g></g></g><g clip-path="url(#2c204a6fce)"><g fill="#ff751f" fill-opacity="1"><g transform="translate(9.948409, 5.258999)"><g><path d="M 2.875 -4.453125 L 2.875 -3.5625 L 1.34375 -3.5625 L 1.34375 -2.671875 L 2.796875 -2.671875 L 2.796875 -1.78125 L 1.34375 -1.78125 L 1.34375 -0.890625 L 2.875 -0.890625 L 2.875 0 L 0.328125 0 L 0.328125 -4.453125 Z M 2.875 -4.453125 "/></g></g></g></g><g clip-path="url(#06a3990c23)"><g fill="#ff751f" fill-opacity="1"><g transform="translate(13.07279, 5.258999)"><g><path d="M 1.34375 -2.765625 L 1.34375 0 L 0.328125 0 L 0.328125 -4.453125 L 1.34375 -4.453125 L 3.109375 -1.6875 L 3.109375 -4.453125 L 4.125 -4.453125 L 4.125 0 L 3.109375 0 Z M 1.34375 -2.765625 "/></g></g></g></g><g clip-path="url(#0a83d10846)"><g fill="#ff751f" fill-opacity="1"><g transform="translate(17.522343, 5.258999)"><g><path d="M 2.6875 -0.921875 C 2.84375 -0.921875 2.992188 -0.941406 3.140625 -0.984375 C 3.285156 -1.035156 3.390625 -1.082031 3.453125 -1.125 L 3.5625 -1.1875 L 4 -0.328125 C 3.976562 -0.316406 3.953125 -0.300781 3.921875 -0.28125 C 3.898438 -0.269531 3.84375 -0.238281 3.75 -0.1875 C 3.664062 -0.132812 3.570312 -0.0859375 3.46875 -0.046875 C 3.363281 -0.015625 3.222656 0.0078125 3.046875 0.03125 C 2.878906 0.0625 2.707031 0.078125 2.53125 0.078125 C 2.113281 0.078125 1.71875 -0.0195312 1.34375 -0.21875 C 0.976562 -0.425781 0.679688 -0.707031 0.453125 -1.0625 C 0.234375 -1.414062 0.125 -1.800781 0.125 -2.21875 C 0.125 -2.53125 0.1875 -2.828125 0.3125 -3.109375 C 0.445312 -3.398438 0.625 -3.644531 0.84375 -3.84375 C 1.070312 -4.050781 1.332031 -4.21875 1.625 -4.34375 C 1.914062 -4.46875 2.21875 -4.53125 2.53125 -4.53125 C 2.820312 -4.53125 3.085938 -4.492188 3.328125 -4.421875 C 3.566406 -4.359375 3.738281 -4.289062 3.84375 -4.21875 L 4 -4.125 L 3.5625 -3.25 C 3.539062 -3.269531 3.503906 -3.296875 3.453125 -3.328125 C 3.398438 -3.359375 3.296875 -3.398438 3.140625 -3.453125 C 2.992188 -3.503906 2.84375 -3.53125 2.6875 -3.53125 C 2.445312 -3.53125 2.226562 -3.488281 2.03125 -3.40625 C 1.832031 -3.332031 1.675781 -3.226562 1.5625 -3.09375 C 1.457031 -2.96875 1.375 -2.828125 1.3125 -2.671875 C 1.25 -2.523438 1.21875 -2.375 1.21875 -2.21875 C 1.21875 -1.882812 1.34375 -1.582031 1.59375 -1.3125 C 1.851562 -1.050781 2.21875 -0.921875 2.6875 -0.921875 Z M 2.6875 -0.921875 "/></g></g></g></g><g clip-path="url(#3f10ce5dd7)"><g fill="#ff751f" fill-opacity="1"><g transform="translate(21.578652, 5.258999)"><g><path d="M -0.15625 -4.453125 L 1.0625 -4.453125 L 1.984375 -3.03125 L 2.90625 -4.453125 L 4.125 -4.453125 L 2.484375 -2 L 2.484375 0 L 1.484375 0 L 1.484375 -2 Z M -0.15625 -4.453125 "/></g></g></g></g></g></g></svg>